:SAMPLES-PER-SECOND 30
:FULLY-SPECIFIED
:DEGREES
223
root  10.4632663 38.2948898 -2.399688818 -1.596169949 0.899435997 -16.02079964
lowerback  9.400320053 6.854300022 -4.514120102
upperback  4.489860058 8.621219635 -3.571180105
thorax  -0.643378973 4.262569904 -2.048360109
lowerneck  4.975150108 -1.498550057 -5.711080074
upperneck  7.927120209 -3.533629894 25.98180008
head  1.917510033 -1.502660036 9.147459984
lclavicle  0 -9.442270133e-015 7.951389973e-016
lhumerus  10.6960001 -28.8628006 73.5338974
lradius  2.58355165e-031 -2.407094703e-031 137.0249939
lwrist  -1.412450015e-030 -0 12.0309
lhand  -1.496451383e-031 -27.76390076 20.11240005
lfingers  90 7.125020027 -90
lthumb  89.89689403 5.08795885 91.16245106
rclavicle  0 -9.442270133e-015 7.951389973e-016
rhumerus  -4.996029854 3.728950024 -63.28150177
rradius  -1.136618538e-031 3.343193434e-031 108.7770004
rwrist  3.531125038e-031 -3.531125038e-031 6.761330128
rhand  -7.920061211e-032 -33.2840004 9.303460121
rfingers  -90 -7.125020027 -90
rthumb  -92.93752616 -24.25625642 -97.11982154
rfemur  -0.8445630074 14.53040028 19.75029945
rtibia  -0 0 42.52799988
rfoot  -0 -5.026780128 12.67910004
rtoes  5.373923086 19.29304026 -105.8922705
lfemur  -42.24069977 -4.49684 8.253000259
ltibia  -0 0 56.59489822
lfoot  -0 -3.821099997 6.927999973
ltoes  -4.250644065 -19.5611806 -102.515957
224
root  10.54819963 38.55955469 -2.386822287 -1.453250051 -1.207399964 -15.89210033
lowerback  8.904270172 6.770460129 -4.626200199
upperback  4.473790169 8.535470009 -3.642460108
thorax  -0.395668 4.21544981 -1.989899993
lowerneck  5.235960007 -0.8784670234 -5.68915987
upperneck  8.58082962 -2.782649994 25.62549973
head  1.924409986 -1.114789963 9.033740044
lclavicle  0 -9.442270133e-015 7.951389973e-016
lhumerus  10.82209969 -27.91250038 73.27680206
lradius  2.606497603e-031 -2.382228847e-031 137.5740051
lwrist  -7.062250077e-031 -0 12.14490032
lhand  -1.496451383e-031 -27.76390076 20.11240005
lfingers  90 7.125020027 -90
lthumb  89.89689403 5.08795885 91.16245106
rclavicle  0 -9.442270133e-015 7.951389973e-016
rhumerus  -7.538229942 3.931289911 -65.15190125
rradius  -1.258534751e-031 3.299232383e-031 110.8799973
rwrist  3.531125038e-031 -3.531125038e-031 6.177760124
rhand  -7.920061211e-032 -33.2840004 9.303460121
rfingers  -90 -7.125020027 -90
rthumb  -92.93752616 -24.25625642 -97.11982154
rfemur  -1.258970022 14.89589977 19.02700043
rtibia  -0 0 41.67480087
rfoot  -0 -2.479959965 13.26729965
rtoes  5.373923086 19.29304026 -105.8922705
lfemur  -40.60900116 -3.883450031 8.32172966
ltibia  -0 0 55.75479889
lfoot  -0 -2.949500084 7.583650112
ltoes  -4.250644065 -19.5611806 -102.515957
225
root  10.63693339 38.83844511 -2.385688954 -1.349060059 -3.484070063 -15.80029964
lowerback  8.493969917 6.566380024 -4.684430122
upperback  4.551499844 8.295479774 -3.623769999
thorax  -0.1025720015 4.089789867 -1.858870029
lowerneck  5.181109905 -0.1168190017 -6.07652998
upperneck  9.444279671 -1.892799973 25.19910049
head  2.02937007 -0.6413869858 8.971039772
lclavicle  0 -9.442270133e-015 7.951389973e-016
lhumerus  10.8071003 -26.43799973 73.03679657
lradius  2.630395993e-031 -2.355814287e-031 138.1519928
lwrist  -1.412450015e-030 -1.765562519e-031 12.04399967
lhand  -1.496451383e-031 -27.76390076 20.11240005
lfingers  90 7.125020027 -90
lthumb  89.89689403 5.08795885 91.16245106
rclavicle  0 -9.442270133e-015 7.951389973e-016
rhumerus  -9.530150414 4.288529873 -67.06189728
rradius  -1.357791266e-031 3.259639077e-031 112.6139984
rwrist  7.062250077e-031 -3.531125038e-031 5.488939762
rhand  -7.920061211e-032 -33.2840004 9.303460121
rfingers  -90 -7.125020027 -90
rthumb  -92.93752616 -24.25625642 -97.11982154
rfemur  -1.677670002 15.27680016 18.29770088
rtibia  -0 0 40.66210175
rfoot  -0 0.3893679976 13.81470013
rtoes  5.373923086 19.29304026 -105.8922705
lfemur  -38.91090012 -3.223239899 8.474129677
ltibia  -0 0 54.8757019
lfoot  -0 -2.074909925 8.302539825
ltoes  -4.250644065 -19.5611806 -102.515957
226
root  10.72860027 39.13644505 -2.396377804 -1.288290024 -5.83852005 -15.67490005
lowerback  8.287520409 6.463180065 -4.523159981
upperback  4.396699905 8.173270226 -3.828589916
thorax  -0.09926900268 4.033649921 -2.127779961
lowerneck  5.914120197 0.5841159821 -5.917500019
upperneck  10.0777998 -1.007279992 24.73049927
head  1.933779955 -0.2214290053 8.786899567
lclavicle  0 -9.442270133e-015 7.951389973e-016
lhumerus  10.45860004 -25.46249962 72.69850159
lradius  2.65349877e-031 -2.329761429e-031 138.7169952
lwrist  -1.412450015e-030 -0 12.00030041
lhand  -1.496451383e-031 -27.76390076 20.11240005
lfingers  90 7.125020027 -90
lthumb  89.89689403 5.08795885 91.16245106
rclavicle  0 -9.442270133e-015 7.951389973e-016
rhumerus  -12.07890034 4.322589874 -69.15969849
rradius  -1.453445651e-031 3.21812675e-031 114.3059998
rwrist  3.531125038e-031 -3.531125038e-031 5.003149986
rhand  -7.920061211e-032 -33.2840004 9.303460121
rfingers  -90 -7.125020027 -90
rthumb  -92.93752616 -24.25625642 -97.11982154
rfemur  -2.081029892 15.67539978 17.53050041
rtibia  -0 0 39.52140045
rfoot  -0 3.570600033 14.18840027
rtoes  5.373923086 19.29304026 -105.8922705
lfemur  -37.16329956 -2.578639984 8.599320412
ltibia  -0 0 53.97980118
lfoot  -0 -1.149240017 9.025460243
ltoes  -4.250644065 -19.5611806 -102.515957
